<?xml version="1.0" encoding="UTF-8" standalone="no"?>
<!DOCTYPE svg PUBLIC "-//W3C//DTD SVG 1.1//EN"
 "http://www.w3.org/Graphics/SVG/1.1/DTD/svg11.dtd">
<!-- Generated by graphviz version 2.43.0 (0)
 -->
<!-- Title: %3 Pages: 1 -->
<svg width="1046pt" height="238pt"
 viewBox="0.00 0.00 1045.50 237.74" xmlns="http://www.w3.org/2000/svg" xmlns:xlink="http://www.w3.org/1999/xlink">
<g id="graph0" class="graph" transform="scale(1 1) rotate(0) translate(36 201.74)">
<title>%3</title>
<polygon fill="dimgray" stroke="transparent" points="-36,36 -36,-201.74 1009.5,-201.74 1009.5,36 -36,36"/>
<text text-anchor="middle" x="486.75" y="-150.54" font-family="Helvetica,sans-Serif" font-size="14.00">Sweep&#39;s Plan &amp; Progress</text>
<!-- start -->
<g id="node1" class="node">
<title>start</title>
</g>
<!-- 29579137&#45;cec0&#45;4ef3&#45;b8c6&#45;9f0345d49dd7 -->
<g id="node3" class="node">
<title>29579137&#45;cec0&#45;4ef3&#45;b8c6&#45;9f0345d49dd7</title>
<ellipse fill="#0ee832" stroke="black" cx="212.5" cy="-99.87" rx="70.92" ry="26.74"/>
<text text-anchor="middle" x="212.5" y="-103.67" font-family="Helvetica,sans-Serif" font-size="14.00">✓ Create</text>
<text text-anchor="middle" x="212.5" y="-88.67" font-family="Helvetica,sans-Serif" font-size="14.00">mvp/app.py</text>
</g>
<!-- start&#45;&gt;29579137&#45;cec0&#45;4ef3&#45;b8c6&#45;9f0345d49dd7 -->
<g id="edge6" class="edge">
<title>start&#45;&gt;29579137&#45;cec0&#45;4ef3&#45;b8c6&#45;9f0345d49dd7</title>
<path fill="none" stroke="black" d="M90.29,-99.87C94.08,-99.87 111.19,-99.87 131.46,-99.87"/>
<polygon fill="black" stroke="black" points="131.62,-103.37 141.62,-99.87 131.62,-96.37 131.62,-103.37"/>
<text text-anchor="middle" x="115.89" y="-106.67" font-family="Helvetica,sans-Serif" font-size="14.00">Start</text>
</g>
<!-- end -->
<g id="node2" class="node">
<title>end</title>
</g>
<!-- a50587fd&#45;e2ce&#45;4c01&#45;86e4&#45;ce84506b7483 -->
<g id="node4" class="node">
<title>a50587fd&#45;e2ce&#45;4c01&#45;86e4&#45;ce84506b7483</title>
<ellipse fill="white" stroke="black" cx="469.5" cy="-99.87" rx="85.62" ry="26.74"/>
<text text-anchor="middle" x="469.5" y="-103.67" font-family="Helvetica,sans-Serif" font-size="14.00">▶ Create</text>
<text text-anchor="middle" x="469.5" y="-88.67" font-family="Helvetica,sans-Serif" font-size="14.00">mvp/Dockerfile</text>
</g>
<!-- 29579137&#45;cec0&#45;4ef3&#45;b8c6&#45;9f0345d49dd7&#45;&gt;a50587fd&#45;e2ce&#45;4c01&#45;86e4&#45;ce84506b7483 -->
<g id="edge2" class="edge">
<title>29579137&#45;cec0&#45;4ef3&#45;b8c6&#45;9f0345d49dd7&#45;&gt;a50587fd&#45;e2ce&#45;4c01&#45;86e4&#45;ce84506b7483</title>
<path fill="none" stroke="black" d="M283.28,-99.87C313.34,-99.87 343.4,-99.87 373.47,-99.87"/>
<polygon fill="black" stroke="black" points="373.66,-103.37 383.66,-99.87 373.66,-96.37 373.66,-103.37"/>
</g>
<!-- 4f51c437&#45;71a2&#45;4ca7&#45;b2a1&#45;fba3b5bef1a8 -->
<g id="node6" class="node">
<title>4f51c437&#45;71a2&#45;4ca7&#45;b2a1&#45;fba3b5bef1a8</title>
<polygon fill="yellow" stroke="black" points="295,-36 0,-36 0,0 295,0 295,-36"/>
<text text-anchor="middle" x="147.5" y="-14.3" font-family="Helvetica,sans-Serif" font-size="14.00">⋯ Run GitHub Actions for `mvp/app.py`</text>
</g>
<!-- 29579137&#45;cec0&#45;4ef3&#45;b8c6&#45;9f0345d49dd7&#45;&gt;4f51c437&#45;71a2&#45;4ca7&#45;b2a1&#45;fba3b5bef1a8 -->
<g id="edge1" class="edge">
<title>29579137&#45;cec0&#45;4ef3&#45;b8c6&#45;9f0345d49dd7&#45;&gt;4f51c437&#45;71a2&#45;4ca7&#45;b2a1&#45;fba3b5bef1a8</title>
<path fill="none" stroke="black" stroke-dasharray="5,2" d="M192.29,-74.04C184.57,-64.54 175.75,-53.72 168,-44.19"/>
<polygon fill="black" stroke="black" points="170.54,-41.77 161.52,-36.22 165.11,-46.19 170.54,-41.77"/>
</g>
<!-- c74f503b&#45;b7d5&#45;41a5&#45;8797&#45;6047412a2cec -->
<g id="node5" class="node">
<title>c74f503b&#45;b7d5&#45;41a5&#45;8797&#45;6047412a2cec</title>
<ellipse fill="white" stroke="black" cx="748.5" cy="-99.87" rx="98.08" ry="26.74"/>
<text text-anchor="middle" x="748.5" y="-103.67" font-family="Helvetica,sans-Serif" font-size="14.00">▶ Modify</text>
<text text-anchor="middle" x="748.5" y="-88.67" font-family="Helvetica,sans-Serif" font-size="14.00">mvp/README.md</text>
</g>
<!-- a50587fd&#45;e2ce&#45;4c01&#45;86e4&#45;ce84506b7483&#45;&gt;c74f503b&#45;b7d5&#45;41a5&#45;8797&#45;6047412a2cec -->
<g id="edge4" class="edge">
<title>a50587fd&#45;e2ce&#45;4c01&#45;86e4&#45;ce84506b7483&#45;&gt;c74f503b&#45;b7d5&#45;41a5&#45;8797&#45;6047412a2cec</title>
<path fill="none" stroke="black" d="M555.33,-99.87C583.44,-99.87 611.55,-99.87 639.67,-99.87"/>
<polygon fill="black" stroke="black" points="640.03,-103.37 650.03,-99.87 640.03,-96.37 640.03,-103.37"/>
</g>
<!-- 132fd994&#45;91aa&#45;4248&#45;9ee0&#45;c9044d78ca81 -->
<g id="node7" class="node">
<title>132fd994&#45;91aa&#45;4248&#45;9ee0&#45;c9044d78ca81</title>
<polygon fill="white" stroke="black" points="625.5,-36 313.5,-36 313.5,0 625.5,0 625.5,-36"/>
<text text-anchor="middle" x="469.5" y="-14.3" font-family="Helvetica,sans-Serif" font-size="14.00">▶ Run GitHub Actions for `mvp/Dockerfile`</text>
</g>
<!-- a50587fd&#45;e2ce&#45;4c01&#45;86e4&#45;ce84506b7483&#45;&gt;132fd994&#45;91aa&#45;4248&#45;9ee0&#45;c9044d78ca81 -->
<g id="edge3" class="edge">
<title>a50587fd&#45;e2ce&#45;4c01&#45;86e4&#45;ce84506b7483&#45;&gt;132fd994&#45;91aa&#45;4248&#45;9ee0&#45;c9044d78ca81</title>
<path fill="none" stroke="black" stroke-dasharray="5,2" d="M469.5,-72.72C469.5,-64.27 469.5,-54.89 469.5,-46.36"/>
<polygon fill="black" stroke="black" points="473,-46.15 469.5,-36.15 466,-46.15 473,-46.15"/>
</g>
<!-- c74f503b&#45;b7d5&#45;41a5&#45;8797&#45;6047412a2cec&#45;&gt;end -->
<g id="edge7" class="edge">
<title>c74f503b&#45;b7d5&#45;41a5&#45;8797&#45;6047412a2cec&#45;&gt;end</title>
<path fill="none" stroke="black" d="M846.85,-99.87C865.82,-99.87 883.06,-99.87 893.65,-99.87"/>
<polygon fill="black" stroke="black" points="893.82,-103.37 903.82,-99.87 893.82,-96.37 893.82,-103.37"/>
<text text-anchor="middle" x="875.39" y="-106.67" font-family="Helvetica,sans-Serif" font-size="14.00">Finish</text>
</g>
<!-- f6cbd16a&#45;313a&#45;4978&#45;a2f5&#45;87f61bd568c3 -->
<g id="node8" class="node">
<title>f6cbd16a&#45;313a&#45;4978&#45;a2f5&#45;87f61bd568c3</title>
<polygon fill="white" stroke="black" points="973.5,-36 643.5,-36 643.5,0 973.5,0 973.5,-36"/>
<text text-anchor="middle" x="808.5" y="-14.3" font-family="Helvetica,sans-Serif" font-size="14.00">▶ Run GitHub Actions for `mvp/README.md`</text>
</g>
<!-- c74f503b&#45;b7d5&#45;41a5&#45;8797&#45;6047412a2cec&#45;&gt;f6cbd16a&#45;313a&#45;4978&#45;a2f5&#45;87f61bd568c3 -->
<g id="edge5" class="edge">
<title>c74f503b&#45;b7d5&#45;41a5&#45;8797&#45;6047412a2cec&#45;&gt;f6cbd16a&#45;313a&#45;4978&#45;a2f5&#45;87f61bd568c3</title>
<path fill="none" stroke="black" stroke-dasharray="5,2" d="M767.81,-73.16C774.74,-63.94 782.54,-53.56 789.44,-44.37"/>
<polygon fill="black" stroke="black" points="792.27,-46.43 795.48,-36.34 786.67,-42.23 792.27,-46.43"/>
</g>
</g>
</svg>
