<?xml version="1.0" encoding="UTF-8" standalone="no"?>
<!DOCTYPE svg PUBLIC "-//W3C//DTD SVG 1.1//EN"
 "http://www.w3.org/Graphics/SVG/1.1/DTD/svg11.dtd">
<!-- Generated by graphviz version 2.43.0 (0)
 -->
<!-- Title: %3 Pages: 1 -->
<svg width="1048pt" height="238pt"
 viewBox="0.00 0.00 1047.50 237.74" xmlns="http://www.w3.org/2000/svg" xmlns:xlink="http://www.w3.org/1999/xlink">
<g id="graph0" class="graph" transform="scale(1 1) rotate(0) translate(36 201.74)">
<title>%3</title>
<polygon fill="dimgray" stroke="transparent" points="-36,36 -36,-201.74 1011.5,-201.74 1011.5,36 -36,36"/>
<text text-anchor="middle" x="487.75" y="-150.54" font-family="Helvetica,sans-Serif" font-size="14.00">Sweep&#39;s Plan &amp; Progress</text>
<!-- start -->
<g id="node1" class="node">
<title>start</title>
</g>
<!-- 29579137&#45;cec0&#45;4ef3&#45;b8c6&#45;9f0345d49dd7 -->
<g id="node3" class="node">
<title>29579137&#45;cec0&#45;4ef3&#45;b8c6&#45;9f0345d49dd7</title>
<ellipse fill="#0ee832" stroke="black" cx="211.5" cy="-99.87" rx="70.92" ry="26.74"/>
<text text-anchor="middle" x="211.5" y="-103.67" font-family="Helvetica,sans-Serif" font-size="14.00">✓ Create</text>
<text text-anchor="middle" x="211.5" y="-88.67" font-family="Helvetica,sans-Serif" font-size="14.00">mvp/app.py</text>
</g>
<!-- start&#45;&gt;29579137&#45;cec0&#45;4ef3&#45;b8c6&#45;9f0345d49dd7 -->
<g id="edge6" class="edge">
<title>start&#45;&gt;29579137&#45;cec0&#45;4ef3&#45;b8c6&#45;9f0345d49dd7</title>
<path fill="none" stroke="black" d="M89.29,-99.87C93.08,-99.87 110.19,-99.87 130.46,-99.87"/>
<polygon fill="black" stroke="black" points="130.62,-103.37 140.62,-99.87 130.62,-96.37 130.62,-103.37"/>
<text text-anchor="middle" x="114.89" y="-106.67" font-family="Helvetica,sans-Serif" font-size="14.00">Start</text>
</g>
<!-- end -->
<g id="node2" class="node">
<title>end</title>
</g>
<!-- a50587fd&#45;e2ce&#45;4c01&#45;86e4&#45;ce84506b7483 -->
<g id="node4" class="node">
<title>a50587fd&#45;e2ce&#45;4c01&#45;86e4&#45;ce84506b7483</title>
<ellipse fill="#0ee832" stroke="black" cx="468.5" cy="-99.87" rx="85.62" ry="26.74"/>
<text text-anchor="middle" x="468.5" y="-103.67" font-family="Helvetica,sans-Serif" font-size="14.00">✓ Create</text>
<text text-anchor="middle" x="468.5" y="-88.67" font-family="Helvetica,sans-Serif" font-size="14.00">mvp/Dockerfile</text>
</g>
<!-- 29579137&#45;cec0&#45;4ef3&#45;b8c6&#45;9f0345d49dd7&#45;&gt;a50587fd&#45;e2ce&#45;4c01&#45;86e4&#45;ce84506b7483 -->
<g id="edge2" class="edge">
<title>29579137&#45;cec0&#45;4ef3&#45;b8c6&#45;9f0345d49dd7&#45;&gt;a50587fd&#45;e2ce&#45;4c01&#45;86e4&#45;ce84506b7483</title>
<path fill="none" stroke="black" d="M282.28,-99.87C312.34,-99.87 342.4,-99.87 372.47,-99.87"/>
<polygon fill="black" stroke="black" points="372.66,-103.37 382.66,-99.87 372.66,-96.37 372.66,-103.37"/>
</g>
<!-- 4f51c437&#45;71a2&#45;4ca7&#45;b2a1&#45;fba3b5bef1a8 -->
<g id="node6" class="node">
<title>4f51c437&#45;71a2&#45;4ca7&#45;b2a1&#45;fba3b5bef1a8</title>
<polygon fill="#0ee832" stroke="black" points="293,-36 0,-36 0,0 293,0 293,-36"/>
<text text-anchor="middle" x="146.5" y="-14.3" font-family="Helvetica,sans-Serif" font-size="14.00">✓ Run GitHub Actions for `mvp/app.py`</text>
</g>
<!-- 29579137&#45;cec0&#45;4ef3&#45;b8c6&#45;9f0345d49dd7&#45;&gt;4f51c437&#45;71a2&#45;4ca7&#45;b2a1&#45;fba3b5bef1a8 -->
<g id="edge1" class="edge">
<title>29579137&#45;cec0&#45;4ef3&#45;b8c6&#45;9f0345d49dd7&#45;&gt;4f51c437&#45;71a2&#45;4ca7&#45;b2a1&#45;fba3b5bef1a8</title>
<path fill="none" stroke="black" stroke-dasharray="5,2" d="M191.29,-74.04C183.57,-64.54 174.75,-53.72 167,-44.19"/>
<polygon fill="black" stroke="black" points="169.54,-41.77 160.52,-36.22 164.11,-46.19 169.54,-41.77"/>
</g>
<!-- c74f503b&#45;b7d5&#45;41a5&#45;8797&#45;6047412a2cec -->
<g id="node5" class="node">
<title>c74f503b&#45;b7d5&#45;41a5&#45;8797&#45;6047412a2cec</title>
<ellipse fill="#0ee832" stroke="black" cx="748.5" cy="-99.87" rx="98.08" ry="26.74"/>
<text text-anchor="middle" x="748.5" y="-103.67" font-family="Helvetica,sans-Serif" font-size="14.00">✓ Modify</text>
<text text-anchor="middle" x="748.5" y="-88.67" font-family="Helvetica,sans-Serif" font-size="14.00">mvp/README.md</text>
</g>
<!-- a50587fd&#45;e2ce&#45;4c01&#45;86e4&#45;ce84506b7483&#45;&gt;c74f503b&#45;b7d5&#45;41a5&#45;8797&#45;6047412a2cec -->
<g id="edge4" class="edge">
<title>a50587fd&#45;e2ce&#45;4c01&#45;86e4&#45;ce84506b7483&#45;&gt;c74f503b&#45;b7d5&#45;41a5&#45;8797&#45;6047412a2cec</title>
<path fill="none" stroke="black" d="M554.09,-99.87C582.73,-99.87 611.38,-99.87 640.02,-99.87"/>
<polygon fill="black" stroke="black" points="640.15,-103.37 650.15,-99.87 640.15,-96.37 640.15,-103.37"/>
</g>
<!-- 132fd994&#45;91aa&#45;4248&#45;9ee0&#45;c9044d78ca81 -->
<g id="node7" class="node">
<title>132fd994&#45;91aa&#45;4248&#45;9ee0&#45;c9044d78ca81</title>
<polygon fill="#0ee832" stroke="black" points="625.5,-36 311.5,-36 311.5,0 625.5,0 625.5,-36"/>
<text text-anchor="middle" x="468.5" y="-14.3" font-family="Helvetica,sans-Serif" font-size="14.00">✓ Run GitHub Actions for `mvp/Dockerfile`</text>
</g>
<!-- a50587fd&#45;e2ce&#45;4c01&#45;86e4&#45;ce84506b7483&#45;&gt;132fd994&#45;91aa&#45;4248&#45;9ee0&#45;c9044d78ca81 -->
<g id="edge3" class="edge">
<title>a50587fd&#45;e2ce&#45;4c01&#45;86e4&#45;ce84506b7483&#45;&gt;132fd994&#45;91aa&#45;4248&#45;9ee0&#45;c9044d78ca81</title>
<path fill="none" stroke="black" stroke-dasharray="5,2" d="M468.5,-72.72C468.5,-64.27 468.5,-54.89 468.5,-46.36"/>
<polygon fill="black" stroke="black" points="472,-46.15 468.5,-36.15 465,-46.15 472,-46.15"/>
</g>
<!-- c74f503b&#45;b7d5&#45;41a5&#45;8797&#45;6047412a2cec&#45;&gt;end -->
<g id="edge7" class="edge">
<title>c74f503b&#45;b7d5&#45;41a5&#45;8797&#45;6047412a2cec&#45;&gt;end</title>
<path fill="none" stroke="black" d="M846.85,-99.87C865.82,-99.87 883.06,-99.87 893.65,-99.87"/>
<polygon fill="black" stroke="black" points="893.82,-103.37 903.82,-99.87 893.82,-96.37 893.82,-103.37"/>
<text text-anchor="middle" x="875.39" y="-106.67" font-family="Helvetica,sans-Serif" font-size="14.00">Finish</text>
</g>
<!-- f6cbd16a&#45;313a&#45;4978&#45;a2f5&#45;87f61bd568c3 -->
<g id="node8" class="node">
<title>f6cbd16a&#45;313a&#45;4978&#45;a2f5&#45;87f61bd568c3</title>
<polygon fill="#0ee832" stroke="black" points="975.5,-36 643.5,-36 643.5,0 975.5,0 975.5,-36"/>
<text text-anchor="middle" x="809.5" y="-14.3" font-family="Helvetica,sans-Serif" font-size="14.00">✓ Run GitHub Actions for `mvp/README.md`</text>
</g>
<!-- c74f503b&#45;b7d5&#45;41a5&#45;8797&#45;6047412a2cec&#45;&gt;f6cbd16a&#45;313a&#45;4978&#45;a2f5&#45;87f61bd568c3 -->
<g id="edge5" class="edge">
<title>c74f503b&#45;b7d5&#45;41a5&#45;8797&#45;6047412a2cec&#45;&gt;f6cbd16a&#45;313a&#45;4978&#45;a2f5&#45;87f61bd568c3</title>
<path fill="none" stroke="black" stroke-dasharray="5,2" d="M768.14,-73.16C775.18,-63.94 783.1,-53.56 790.12,-44.37"/>
<polygon fill="black" stroke="black" points="792.97,-46.41 796.26,-36.34 787.41,-42.16 792.97,-46.41"/>
</g>
</g>
</svg>
